<svg xmlns="http://www.w3.org/2000/svg" viewBox="0 0 162.1 43.9"><defs><style>.cls-1,.cls-3,.cls-4,.cls-7{fill:none;}.cls-1,.cls-2,.cls-3{stroke:#fff;}.cls-1,.cls-4{stroke-linecap:round;}.cls-1,.cls-2,.cls-3,.cls-4,.cls-7{stroke-miterlimit:10;}.cls-1{stroke-width:2.5px;}.cls-2{font-size:7.56px;fill:#fea219;font-family:MyriadPro-Regular, Myriad Pro;}.cls-2,.cls-4{stroke-width:2px;}.cls-4,.cls-7{stroke:#848484;}.cls-5{fill:#848484;}.cls-6{fill:#fff;}</style></defs><title>Altagama</title><g id="Capa_2" data-name="Capa 2"><path class="cls-1" d="M-176,332.81c1.5-8.91,1.1-21.11,9.16-26.91,7-5,17.91-3.33,23,3.19,6.59,8.37,3.88,21.26-4.73,26.16" transform="translate(178.8 -301.74)"/><path class="cls-1" d="M-156.14,336.28c-7.73,0-14.44-7.52-13.89-15.64.43-6.39,5.17-12.56,11.68-13.24,11.46-1.21,17,11.86,10.55,20.58" transform="translate(178.8 -301.74)"/><path class="cls-1" d="M-153.55,338.73l2.32-10.59c.7-3.18,1.87-6.57,1.61-9.86-.47-6.15-7.34-7.22-11.59-5-4.64,2.41-5.82,10.3-3,14.71,1.51,2.36,6.16,4.4,9,4.08" transform="translate(178.8 -301.74)"/><text class="cls-2" transform="translate(1.61 34.54)">.</text><text class="cls-2" transform="translate(24.15 41.01)">.</text></g><g id="Capa_3" data-name="Capa 3"><path class="cls-3" d="M-164.19,326.63v-1A5.47,5.47,0,0,0-164.19,326.63Z" transform="translate(178.8 -301.74)"/><path class="cls-4" d="M-152,317.05c-.16,2-.65,4-.95,6-.27,1.74-.29,3.76-1.42,5.22a4.71,4.71,0,0,1-4.83,1.61,4.79,4.79,0,0,1-2.93-2.3c-.88-1.58-.56-3.53-.21-5.22s.73-3.67,1-5.53l.18-1.06Z" transform="translate(178.8 -301.74)"/><line class="cls-4" x1="21.96" y1="17.31" x2="21.72" y2="18.97"/><path class="cls-4" d="M-156.1,315.62a8,8,0,0,1,.9-3.72c.58-.84,1.59-.66,2.47-.54.64.08,1.55.27,2.11-.18.89-.7.65-2.83.79-3.85" transform="translate(178.8 -301.74)"/></g><g id="Capa_4" data-name="Capa 4"><path class="cls-5" d="M-123.34,312.69h-4.79l-9.73,18.44h4.53l2.25-4.9H-126l.24,4.9h3.92Zm-6.6,11.05,3.49-7.61.38,7.61Z" transform="translate(178.8 -301.74)"/><path class="cls-5" d="M-113.2,330c0,2.65-4.87,1.82-5.94.41-1.27-1.67-.16-4.24.22-6.05l1.16-5.52,1.05-5c0-.13.4-2.22.47-2.22h4l-3.32,16.77a1.79,1.79,0,0,1,.57-.09A1.79,1.79,0,0,1-113.2,330Z" transform="translate(178.8 -301.74)"/><path class="cls-5" d="M-105.31,319.93l-1.75,8.88a1.61,1.61,0,0,1,.54-.09,1.68,1.68,0,0,1,1.72,1.63c0,2.51-4.59,1.72-5.6.39-1.2-1.58-.15-4,.21-5.71s.71-3.4,1.07-5.1h-2.32l.48-2.63h2.39c.16-.74.31-1.47.46-2.21,0-.13.38-2.1.44-2.1h3.74l-.86,4.31h2.86l-.44,2.63Z" transform="translate(178.8 -301.74)"/><path class="cls-5" d="M-90.88,317.23l-.45,2.49a4.19,4.19,0,0,0-2.5-2.92c-2.6-.89-5.82,1.63-7.21,5.64s-.4,8,2.2,8.89c2,.68,4.31-.61,5.92-3l-.52,2.83h3.3l2.3-13.9ZM-93,324.89c-.71,2.05-2.35,3.34-3.68,2.88s-1.83-2.48-1.12-4.53,2.35-3.34,3.67-2.88S-92.31,322.84-93,324.89Z" transform="translate(178.8 -301.74)"/><path class="cls-6" d="M-57.2,317.75l-.45,2.49a4.19,4.19,0,0,0-2.5-2.92c-2.6-.89-5.83,1.64-7.21,5.65s-.41,8,2.19,8.89c2,.68,4.32-.61,5.93-3l-.52,2.84h3.3l2.3-13.92Zm-2.14,7.67c-.71,2.05-2.36,3.34-3.69,2.88s-1.82-2.49-1.12-4.53,2.36-3.34,3.68-2.89S-58.63,323.37-59.34,325.42Z" transform="translate(178.8 -301.74)"/><path class="cls-6" d="M-19.74,317.75l-.46,2.49a4.19,4.19,0,0,0-2.5-2.92c-2.6-.89-5.83,1.64-7.21,5.65s-.4,8,2.2,8.89c2,.68,4.31-.61,5.93-3l-.53,2.84H-19l2.31-13.92Zm-2.14,7.67c-.72,2.05-2.36,3.34-3.69,2.88s-1.83-2.49-1.12-4.53,2.35-3.34,3.68-2.89S-21.18,323.37-21.88,325.42Z" transform="translate(178.8 -301.74)"/><path class="cls-7" d="M-93,324.89c-.71,2.05-2.35,3.34-3.68,2.88s-1.83-2.48-1.12-4.53,2.35-3.34,3.67-2.88S-92.31,322.84-93,324.89Z" transform="translate(178.8 -301.74)"/><path class="cls-6" d="M-71.4,317.9l2.53-2.35c.38-.35-2.49-1.75-2.78-1.87-7.65-3.16-14.84,6.14-12,13.17a8.14,8.14,0,0,0,5.57,4.91,7,7,0,0,0,6.92-2.36c1.75-2.26,1.78-5.38,1.49-8.22l-6.11.09-.18,3.29,2.47.1A2.84,2.84,0,0,1-75,327.72c-2.06,1-4.35-.52-4.93-2.51a7.67,7.67,0,0,1,2.32-7.66A5.17,5.17,0,0,1-71.4,317.9Z" transform="translate(178.8 -301.74)"/><path class="cls-6" d="M-33.69,331.21h-3.24c.1,0,1-7,1-7.79s.2-2.17-.69-2.39l-.13,0h-.2l-.23,0c-1.73.24-2.69,2.95-3.4,5a31.58,31.58,0,0,0-1.3,5.06c0,.06,0,.13,0,.18h-3.32a37.92,37.92,0,0,0,1-3.92,21.11,21.11,0,0,0,.63-3.87c0-.78.11-2.32-.88-2.57l-.13,0a.65.65,0,0,0-.2,0,1.43,1.43,0,0,0-.23,0c-1.73.23-2.68,2.94-3.4,5A50.64,50.64,0,0,0-49.81,331h-3.57l3.23-13.89h3.06l-.42,2.15A5.81,5.81,0,0,1-42.6,317c1.42.11,1.67,1.65,1.83,2.93,0,.34.06.68.08,1,1.42-2.17,3.3-4,6-3.77,1.48.12,2,.84,2.25,2.25a18.06,18.06,0,0,1-.12,5.24A65.48,65.48,0,0,1-33.69,331.21Z" transform="translate(178.8 -301.74)"/></g></svg>